<svg width="210" height="15" xmlns="http://www.w3.org/2000/svg">
 <!-- Created with Method Draw - http://github.com/duopixel/Method-Draw/ -->

 <g>
  <title>background</title>
  <rect x="-1" y="-1" width="212" height="17" id="canvas_background" fill="none"/>
 </g>
 <g>
  <title>Layer 1</title>
  <path d="m2.5,12c0,0 1,0 1,-1c0,0 1,0 1,0c0,0 -0.70711,-0.29291 0,-1c0.70711,-0.70709 1,0 1,0c0,0 0,0 1,-1c0,0 0,0 1,0c1,0 1,-1 2,-1c0,0 1,0 1,0c0,0 0,-1 1,-1c0,0 0,0 0,0c1,0 1,0 1,0c0,0 1,0 1,0c0,0 1,0 1,0c0,0 0,0 1,0c0,0 0,0 0,0c1,0 1,0 1,0c0,0 1,0 1,0c0,0 0,0 1,0c0,0 0,0 0,0c0,1 1,1 1,1c0,0 0,0 0,0c1,0 1,0 1,1c0,0 1,0 1,0c0,0 0,0 0,0c0,1 1,1 1,1c0,0 0,0 0,0c1,0 1,0 2,0c1,0 1,0 2,0c1,0 1,0 2,0c0,0 0,0 1,0c0,0 0,0 0,0c1,-1 1,-1 1,-1c1,0 1,0 1,0c1,-1 1,-1 2,-1c0,0 0,0 1,0c0,0 0,0 0,0c1,0 1,0 1,0c0,0 1,0 1,0c0,0 0,0 1,0c0,0 0,0 0,0c1,0 1,0 1,0c0,0 1,0 1,0c1,0 1,0 2,0c0,0 -0.707111,0.29291 0,1c0.707111,0.70709 1,0 1,0c0,0 0.292889,-0.70709 1,0c0.707111,0.70709 0,1 0,1c1,0 1,0 1,0c0,0 1,1 1,1c0,0 1,0 1,0c0,0 0,0 1,0c0,0 0,1 0,1c1,0 1,0 1,0c0,0 1,0 1,0c0,0 0,0 1,0c0,0 0,0 0,0c1,0 1,0 1,0c0,0 1,0 1,0c0,-1 0,-1 1,-1c0,0 0,0 1,0c0,0 0,0 0,0c1,0 1,0 1,0c1,0 1,0 1,0c0,0 1,-1 1,-1c0,0 1,0 1,0c0,0 1,0 1,0c0,0 0,0 0,0c0,0 1,0 1,0c0,0 1,0 1,0c0,-1 0,-1 1,-1c0,0 0,0 0,0c1,0 1,0 1,0c0,0 1,0 1,0c0,0 0,0 1,0c0,0 0,0 0,0c1,0 1,0 1,0c0,0 1,0 1,0c0,0 0,0 1,0c0,0 -0.707108,0.29291 0,1c0.707108,0.70709 1,0 1,0c0,0 0,1 1,1c0,0 0,0 0,0c1,0 1,0 1,0c0,0 1,0 1,0c0,0 0,0 1,0c0,0 0,0 0,0c1,0 1,0 1,0c0,0 1,0 1,0c0,0 1,0 1,0c1,0 1.292892,-0.29291 2,-1c0.707108,-0.70709 1,0 2,0c0,0 0,0 1,0c0,0 0,0 1,0c0,0 0,0 1,0c0,0 1,0 2,-1c0,0 0,0 1,0c0,0 1,0 1,0c0,0 0,0 1,0c0,0 0,0 0,0c1,-1 1,-1 2,-1c0,0 0,0 0,0c1,0 1,0 1,0c0,0 1,0 1,0c0,0 0,0 1,0c0,0 0,0 0,0c1,0 1,0 1,1c0,0 0.292892,0.29291 1,1c0.707108,0.70709 1,0 1,0c1,0 1,0 1,1c0,0 1,0 1,0c0,0 0,0 1,0c0,0 0,0 0,0c1,0 2,0 3,0c0,0 0,0 1,0c0,0 0,0 1,0c0,0 0,0 0,0c1,0 1,0 2,0c0,0 1,-1 2,-1c1,0 1,0 2,0c0,0 1,0 1,0c0,0 0,0 1,0c0,0 -0.707108,-0.29291 0,-1c0.707108,-0.70709 1,0 1,0c1,0 1,0 1,0c1,0 1,-1 1,-1c1,0 1,0 1,0c0,0 1,0 1,0c0,0 0,0 1,0c0,0 0,0 0,0c0,0 1,-1 1,-1c0,0 0,0 1,0c0,0 0,0 0,0c1,-1 1,-1 1,-1c0,0 1,0 1,-1c0,0 0,0 1,0c0,0 0,0 1,0c0,0 0.693443,-0.4588 2,-1c0.923866,-0.38269 1,0 2,0c0,0 1,0 1,0c0,0 0,0 1,0c0,0 0,0 1,0c1,0 1,1 2,1c1,0 1,1 2,1c0,0 -0.707108,0.29291 0,1c0.707108,0.70709 1,0 1,0c0,0 1.076126,-0.38269 2,0c1.306564,0.5412 2,1 2,1c1,1 2,1 2,1c1,1 1,1 1,1c1,0 1,0 1,0c0,0 1,0 1,0c1,0 2,0 3,0c1,0 2,0 2,0c1,0 1,0 1,0c1,0 1,0 1,0c0,0 1,0 1,0c0,0 1,0 1,0c0,0 1,0 1,0c0,0 1,0 1,-1c0,0 0,0 0,0c0,0 1,0 2,-1c0,0 1,0 1,0c1,0 1,-1 1,-1c1,0 1,0 1,0c0,0 1,0 1,0c0,0 1,0 1,0c1,0 1,0 1,0c1,-1 1,-1 1,-1c0,0 1,0 1,0c0,0 0,0 1,0c1,0 1,0 1,0c1,0 1,0 1,0c0,0 1,0 1,0c0,0 0,0 1,0c0,0 1,0 1,0c1,0 1,0 1,0c1,0 1,0 1,0c1,0 1,0 1,0c0,0 1,0 1,0c0,0 1,0 1,0c0,0 1,0 1,0c1,0 1,0 1,0c0,0 1,0 1,0c0,0 0,0 1,1c0,0 0,0 0,0c1,0 1,0 1,0c0,0 0.292892,-0.70709 1,0c0.707108,0.70709 0,1 0,1c0,0 0,1 1,1c0,0 0,0 0,1c0,0 0,0 1,0c0,0 0,0 0,0c0,0 1,0 1,0c0,1 0,1 1,1c0,0 0,0 0,0c1,0 1,0 1,0c0,0 1,0 1,0c0,0 0,0 1,0c0,0 0,0 1,0c0,0 0,0 1,0c0,0 0,0 0,0c1,0 1,0 1,0c1,0 2,0 2,0c0,0 1,0 1,0c0,0 1,0 1,0c0,0 1,0 1,0c0,0 1,0 1,0c0,-1 1,-1 1,-1c0,0 1,0 1,0c0,0 0,0 1,0c0,0 0,0 0,0c1,-1 1,-1 1,-1c0,0 1,0 1,0c0,0 1,0 1,0c0,0 0,0 0,0c1,0 1,0 1,0c0,0 1,0 1,0l0,0l0,0" id="svg_9" fill-opacity="null" stroke-width="4" stroke="#228811" fill="none"/>
 </g>
</svg>