<?xml version="1.0"?>
<svg width="210" height="15" xmlns="http://www.w3.org/2000/svg">
 <!-- Created with Method Draw - http://github.com/duopixel/Method-Draw/ -->
 <g>
  <title>background</title>
  <rect fill="#fff" id="canvas_background" height="17" width="212" y="-1" x="-1"/>
  <g display="none" overflow="visible" y="0" x="0" height="100%" width="100%" id="canvasGrid">
   <rect fill="url(#gridpattern)" stroke-width="0" y="0" x="0" height="100%" width="100%"/>
  </g>
 </g>
 <g>
  <title>Layer 1</title>
  <path d="m2.5,12c0,0 1,0 1,-1c0,0 1,0 1,0c0,0 -0.70711,-0.292908 0,-1c0.70711,-0.707092 1,0 1,0c0,0 0,0 1,-1c0,0 0,0 1,0c1,0 1,-1 2,-1c0,0 1,0 1,0c0,0 0,-1 1,-1c0,0 0,0 0,0c1,0 1,0 1,0c0,0 1,0 1,0c0,0 1,0 1,0c0,0 0,0 1,0c0,0 0,0 0,0c1,0 1,0 1,0c0,0 1,0 1,0c0,0 0,0 1,0c0,0 0,0 0,0c0,1 1,1 1,1c0,0 0,0 0,0c1,0 1,0 1,1c0,0 1,0 1,0c0,0 0,0 0,0c0,1 1,1 1,1c0,0 0,0 0,0c1,0 1,0 2,0c1,0 1,0 2,0c1,0 1,0 2,0c0,0 0,0 1,0c0,0 0,0 0,0c1,-1 1,-1 1,-1c1,0 1,0 1,0c1,-1 1,-1 2,-1c0,0 0,0 1,0c0,0 0,0 0,0c1,0 1,0 1,0c0,0 1,0 1,0c0,0 0,0 1,0c0,0 0,0 0,0c1,0 1,0 1,0c0,0 1,0 1,0c1,0 1,0 2,0c0,0 -0.707111,0.292908 0,1c0.707111,0.707092 1,0 1,0c0,0 0.292889,-0.707092 1,0c0.707111,0.707092 0,1 0,1c1,0 1,0 1,0c0,0 1,1 1,1c0,0 1,0 1,0c0,0 0,0 1,0c0,0 0,1 0,1c1,0 1,0 1,0c0,0 1,0 1,0c0,0 0,0 1,0c0,0 0,0 0,0c1,0 1,0 1,0c0,0 1,0 1,0c0,-1 0,-1 1,-1c0,0 0,0 1,0c0,0 0,0 0,0c1,0 1,0 1,0c1,0 1,0 1,0c0,0 1,-1 1,-1c0,0 1,0 1,0c0,0 1,0 1,0c0,0 0,0 0,0c0,0 1,0 1,0c0,0 1,0 1,0c0,-1 0,-1 1,-1c0,0 0,0 0,0c1,0 1,0 1,0c0,0 1,0 1,0c0,0 0,0 1,0c0,0 0,0 0,0c1,0 1,0 1,0c0,0 1,0 1,0c0,0 0,0 1,0c0,0 -0.707108,0.292908 0,1c0.707108,0.707092 1,0 1,0c0,0 0,1 1,1c0,0 0,0 0,0c1,0 1,0 1,0c0,0 1,0 1,0c0,0 0,0 1,0c0,0 0,0 0,0c1,0 1,0 1,0c0,0 1,0 1,0c0,0 1,0 1,0c1,0 1.292892,-0.292908 2,-1c0.707108,-0.707092 1,0 2,0c0,0 0,0 1,0c0,0 0,0 1,0c0,0 0,0 1,0c0,0 1,0 2,-1c0,0 0,0 1,0c0,0 1,0 1,0c0,0 0,0 1,0c0,0 0,0 0,0c1,-1 1,-1 2,-1c0,0 0,0 0,0c1,0 1,0 1,0c0,0 1,0 1,0c0,0 0,0 1,0c0,0 0,0 0,0c1,0 1,0 1,1c0,0 0.292892,0.292908 1,1c0.707108,0.707092 1,0 1,0c1,0 1,0 1,1c0,0 1,0 1,0c0,0 0,0 1,0c0,0 0,0 0,0c1,0 2,0 3,0c0,0 0,0 1,0c0,0 0,0 1,0c0,0 0,0 0,0c1,0 1,0 2,0c0,0 1,-1 2,-1c1,0 1,0 2,0c0,0 1,0 1,0c0,0 0,0 1,0c0,0 -0.707108,-0.292908 0,-1c0.707108,-0.707092 1,0 1,0c1,0 1,0 1,0c1,0 1,-1 1,-1c1,0 1,0 1,0c0,0 1,0 1,0c0,0 0,0 1,0c0,0 0,0 0,0c0,0 1,-1 1,-1c0,0 0,0 1,0c0,0 0,0 0,0c1,-1 1,-1 1,-1c0,0 1,0 1,-1c0,0 0,0 1,0c0,0 0,0 1,0c0,0 0.693436,-0.458801 2,-1c0.923874,-0.38269 1,0 2,0c0,0 1,0 1,0c0,0 0,0 1,0c0,0 0,0 1,0c1,0 1,1 2,1c1,0 1,1 2,1c0,0 -0.707108,0.292908 0,1c0.707108,0.707092 1,0 1,0c0,0 1.076126,-0.38269 2,0c1.306564,0.541199 2,1 2,1c1,1 2,1 2,1c1,1 1,1 1,1c1,0 1,0 1,0c0,0 1,0 1,0c1,0 2,0 3,0c1,0 2,0 2,0c1,0 1,0 1,0c1,0 1,0 1,0c0,0 1,0 1,0c0,0 1,0 1,0c0,0 1,0 1,0c0,0 1,0 1,-1c0,0 0,0 0,0c0,0 1,0 2,-1c0,0 1,0 1,0c1,0 1,-1 1,-1c1,0 1,0 1,0c0,0 1,0 1,0c0,0 1,0 1,0c1,0 1,0 1,0c1,-1 1,-1 1,-1c0,0 1,0 1,0c0,0 0,0 1,0c1,0 1,0 1,0c1,0 1,0 1,0c0,0 1,0 1,0c0,0 0,0 1,0c0,0 1,0 1,0c1,0 1,0 1,0c1,0 1,0 1,0c1,0 1,0 1,0c0,0 1,0 1,0c0,0 1,0 1,0c0,0 1,0 1,0c1,0 1,0 1,0c0,0 1,0 1,0c0,0 0,0 1,1c0,0 0,0 0,0c1,0 1,0 1,0c0,0 0.292892,-0.707092 1,0c0.707108,0.707092 0,1 0,1c0,0 0,1 1,1c0,0 0,0 0,1c0,0 0,0 1,0c0,0 0,0 0,0c0,0 1,0 1,0c0,1 0,1 1,1c0,0 0,0 0,0c1,0 1,0 1,0c0,0 1,0 1,0c0,0 0,0 1,0c0,0 0,0 1,0c0,0 0,0 1,0c0,0 0,0 0,0c1,0 1,0 1,0c1,0 2,0 2,0c0,0 1,0 1,0c0,0 1,0 1,0c0,0 1,0 1,0c0,0 1,0 1,0c0,-1 1,-1 1,-1c0,0 1,0 1,0c0,0 0,0 1,0c0,0 0,0 0,0c1,-1 1,-1 1,-1c0,0 1,0 1,0c0,0 1,0 1,0c0,0 0,0 0,0c1,0 1,0 1,0c0,0 1,0 1,0l0,0l0,0" id="svg_9" fill-opacity="null" stroke-width="1.5" stroke="#bd3448" fill="none"/>
 </g>
</svg>